# xmcd CD database file
#
# Track frame offsets:
#	150
#	16267
#	32325
#	47622
#	67977
#	85460
#	101502
#	108092
#	126220
#	145010
#
# Disc length: 2243 seconds
#
# Revision: 4
# Processed by: cddbd v1.5PL3 Copyright (c) Steve Scherf et al.
# Submitted via: CDex 1.51
#
DISCID=7408c10a
DTITLE=ICON - Icon
DYEAR=1984
DGENRE=Hard Rock
TTITLE0=(Rock On) Throught The Night
TTITLE1=Killer Machine
TTITLE2=On Your Feet
TTITLE3=World War
TTITLE4=Hot Desert Night
TTITLE5=Under My Gun
TTITLE6=Iconoclast
TTITLE7=Rock 'N' Roll Maniac
TTITLE8=I'm Alive
TTITLE9=It's Up To You
EXTD=YEAR: 1984
EXTT0=
EXTT1=
EXTT2=
EXTT3=
EXTT4=
EXTT5=
EXTT6=
EXTT7=
EXTT8=
EXTT9=
PLAYORDER=
